<svg id="logo-splash" xmlns="http://www.w3.org/2000/svg" xmlns:xlink="http://www.w3.org/1999/xlink" width="188.07" height="261.679" viewBox="0 0 188.07 261.679">
  <defs>
    <clipPath id="clip-path">
      <rect id="Rectangle_1560" data-name="Rectangle 1560" width="188.07" height="261.679" fill="none"/>
    </clipPath>
    <clipPath id="clip-path-2">
      <path id="Path_33394" data-name="Path 33394" d="M152.267,146.247c-.08.455-.634.379-.93.639-.488.429-.852,1.018-1.5.842a5.975,5.975,0,0,0-1.336,1.153c-2.023,2.8-4.844,6.255-6.122,9.663-.155.706-.787,2.683-.351,1.079.1-.359.216-.72.351-1.079.061-.273.049-.356-.121.029-.192.431-.09.285-.267.749-1.084,2.822.147.846-.755,3.257-.374,1-.427.09-.468,1.338-.921.263-.82.129-1.5,1.774-.381.925.393.539-1,1.11a5.208,5.208,0,0,1-1.746.248c-4.341.285-10.012,1.3-12.141,3.376.776,4.516,5.55,1.511,6.734,1.407,2.046-.178,3.065-.75,5.756-.721.311,2.183-.507,2.5-.943,3.779a12.838,12.838,0,0,0-.423,4.319.122.122,0,0,1-.065,0c-.036,0-.07-.008-.079.023-.182.675-.153.471-.178.267-.014-.112-.043-.224-.132-.193-.247.087-.28.07-.279.051s.064-.047-.254.188c.149,2,.424.018.22,2.027-.972.683-.834-.483-1.251,1.989l-.755,3.775a.569.569,0,0,1,.012.121c.007.532.082,1.09-.228,1.438-1.165,2.834-.585,3.564-1.927,7.714.042-.088-.113,1.353-.27,2.794s-.316,2.9-.275,2.791c-.005.106-.008.219-.012.339-.019.822-.02.795-.043.768s-.065-.048-.159.627c-.608,4.317-.438,9.148-.484,13.486-.02,1.892.392,1.062.338,3-.087,3.117.1,15.6,1.151,18.131.87,2.092,3.13,1.7,4.687,1.471.32-3.023-.463-5.061-.217-8.029.249-3,.417-6.262.553-9.538.1-2.485-.454-6.792.014-8.981.812-3.8,1.206-11.71,1.7-13.236,1.3-3.99-.675-2.5,1.4-8.11.894-2.415,1.27-8.73,2.341-11.19.059-.133.273-.563.42-.92a18.61,18.61,0,0,0,1.555-6.888c.4.232.487-.114.522-.462.04-.417.008-.834.367-.246.5-3.54,4.508-2.637,9.433-3.1l23.019-2.646c2.528-.525,10.144-.891,8.6-3.734l-.481-.107c-.049,0-.179-.023-.241-.021l-1.249.275c-4.67,1.177-21.835,2.216-27.165,2.5a47.893,47.893,0,0,0-5.032.517,8.006,8.006,0,0,1-3.668-.129l-.5-.181a1.058,1.058,0,0,1-.239-.106c-.019-1.332,1.74-4.392,2.321-6.121,1.284-2.548,1.8-5.029,3.628-6.555a1.931,1.931,0,0,1,2.033-1.08,12.394,12.394,0,0,1,4.24-.424c.711.03,7.58,5.283,8.184,5.266,1.381-.04,3.685-3.318,3.4-4.042.346.018.908-2.08.9-2.958-.009-.976-1.253-2-2.625-2.864a4.816,4.816,0,0,0-1.4-.6c-.433-.1-2.145-.626-3.9-1.143a3.18,3.18,0,0,1-1.195-.169,6.016,6.016,0,0,1-1.239-.277,2.013,2.013,0,0,1-1.123-.466,2.566,2.566,0,0,1-1.713.215,2.406,2.406,0,0,1-.706-.242,19.915,19.915,0,0,0-5.2,2.011M19.085,229.638a6.874,6.874,0,0,1-2.347-1.938c-1.772-2.657.971-9.438,3.752-12.527a10.075,10.075,0,0,0,1.052-1.081c2.181-2.908-.221-.191,3.207-3.2,1.03-.9,1.245-.554,2.505-1.37,5.266-3.411,4.633-2.509,8.282-4.309,3.9-1.925,10.529-5.509,14.661-5.33,1.614,2.8,2.33,1.406,1.67,6.538-.49,3.814-.533,3.733-2.179,6.277-2.04,3.151-1.642,3.842-3.979,5.7-1.249.992-.612.914-1.421,1.837-.779.891-1.4.676-2.319,1.536l-.893.954a13.119,13.119,0,0,1-4.273,2.307c-1.68.723-3.586,1.872-5.345,2.742-2.6,1.291-5.8,2.575-8.835,2.575a8.562,8.562,0,0,1-3.54-.712m29.821-85.174c-3.764.353-3.684,1.1-6.336,2.085-1.9.71-3-.115-3.434,1.313-.383,1.253.23,1.025-.2,2.034-.891-.717-.609-.406-.964-1.9l-7.621,2.915c-2.278,1.519-.626,1.382-5,3.169-2.428.99-2.375,2.058-4.76,3.276l-4.8,3.314c-1.24,1.6-.2.876-2.234,2.017-1.594.9-4.827,4.366-5.973,6.141-.765,1.186-.663,1.937-1.4,2.937-2.07,2.786-1.63,1.337-2.61,6.125-1.508,7.349,1.21,15.153,7.768,16.29,3.305.573,7.062-.566,10.281-.723,1.1-.054,2.48-.421,3.8-.485,1.028-.049,2.038,0,3.042.053a19.827,19.827,0,0,0,4.567-.116c2.39-.422-.11-.057,2.224.5,2.2.522,8.052,1.218,9.382,3.188-1.141,1.552-4.3,1.979-6.352,2.606-4.915,1.5-6.938,3.815-8.792,4.706-.67.322-.476.15-.988.6-.892.786-1.963.853-2.963,1.621L24.3,207.34A6.286,6.286,0,0,1,23,208.508l-1.416,1.109a12.774,12.774,0,0,0-3.351,3.416c-.643,1.137-.24.482-1.11,1.4a11.772,11.772,0,0,0-3.135,6.606c-1.934,14.236,12.77,15.807,21.482,11.933,1.61-.716,2.526-2.251,3.943-2.719,1.775-.585.812.446,4.589-2.439l5.034-4.557c1.784-1.46,4.642-6.578,5.547-8.887,1.087-2.775.812-9.6-.317-12.285-.615-1.462-1.36-1.991-1.43-3.613a113.308,113.308,0,0,1,12.6-3.992,10.174,10.174,0,0,0,2.095-1.329c-.738,1.647-1.383,3.227-1.905,4.407l-5.017,14.3a12.681,12.681,0,0,1-1.627,6.409c.373,4.453-.5,6.513,1.67,11.038,1.469,3.065,4.091,5.98,8.367,5.382,1.967-1.538,8.222-5.839,9.768-8.944,1.077-1.057,2.3-2.376,3.579-3.842a1.848,1.848,0,0,1,.439-.706,3.921,3.921,0,0,0,.418-.54,1.943,1.943,0,0,1,.642-.518,66.167,66.167,0,0,0,8.15-12.085,7.24,7.24,0,0,1,.763-1.266c.289-.31,1.232-.543.833.536-.649,1.756-.522,1.376-.951,2.591a47.146,47.146,0,0,0-1.626,7.38,19.726,19.726,0,0,0,1.552,11.587c1.469,3.065,4.362,4.493,8.637,3.9,3.177-1.831,6.93-1.7,11.918-9.5.046-.588.522-.56,1.1-.531a3.363,3.363,0,0,0,.931-.043l.01-.012a2.22,2.22,0,0,1,1.173-1.564l.217-.225a78.418,78.418,0,0,0,5.839-9.078,23.6,23.6,0,0,0,1.793-3.39c.5-1.338.686-4.426,1.262-5.262a4.3,4.3,0,0,0,.314-.552l1.392-5.929,1.339-8.182c0-.077,0-.154,0-.227.019-2.18-.541-2.9-.469-4.125l-.165-2.365-.266-.958-.548-.6c-.365-.176-4.661,2.1-4.654,2.958,0,.636-2.316,1.026-2.244,1.692.024.229,1.479,2.886,1.424,3.11-.34,1.381,1.416.168.867,2.363-.178.715.388,1.371.055,2.427-.315,1,.548,2.977.2,3.979-.421,1.225-.015,3.383-.568,4.4.436.471-.723,2.37-.875,3-.106.436.141.638-.243.969a2.735,2.735,0,0,1-.754.64c0,.068,0,.137,0,.207a3.682,3.682,0,0,1-.434,1.411c-.118.67-.618.691-1.158.937-.423.194-.372,1.113-.832.967-1.241,1.932-2.544,3.8-3.853,5.463a17.924,17.924,0,0,1-3.063,3.227c-.665.49-1.258.589-1.944,1.112-2.77,2.106-6.642,4.611-7.811,2.55-.074-1.334-2.115-2.972-.039-6.514.807-1.378.9-2.717,1.318-4.539-.005-.013.6-2.719.7-2.892.225-.415,0-.471.405-1.217.278-.514.094-.716.266-1.225-.4-1.316,1.744-5.809,2.212-8.549.692-4.068,1.905-7.731-.009-8.514-.659-.27-3.478,1.055-4.208,1.706-2.436.856-4.635,2.394-5.363,3.547-.193.3-2.009,3.494-4.667,7.527a1.885,1.885,0,0,1-1.374,2.379,2.115,2.115,0,0,1-.23.812,2.791,2.791,0,0,1-.788,1.322l-.054.338a1.908,1.908,0,0,1-1.969,1.438c-1.077,1.428-2.2,2.839-3.351,4.164-1.013,1.172-.9,1.751-1.929,2.737,0,.148-1.157.8-1.159.941a2.1,2.1,0,0,1-.5,1.32c-.55,1.011-.851.338-1.623,1.757a2.467,2.467,0,0,1-1.177,1.042c-3.273,1.778-8.092,2.827-7.173-2.53a78.9,78.9,0,0,1,2.452-9.166c0-.041,0-.083,0-.128,0-.984-.141-1.8.5-2.5.219-.242.371-.556.566-.815,2.629-8.655,4.717-17.32-1.15-18.948-1.256.731-2.462,2.444-3.555,4.444l.012-.073a27.153,27.153,0,0,1-8,2.977l-9.468,2.715c-1.8.689-2.461-.7-3.827-1.913-3.036-2.689-10.917-5.831-15.293-6-1.918-.075-.115-.092-1.864-.968-1.859.3-.42.655-1.9.332-.142-.031-1.445-.751-1.924-.872-2.677-.684-10.7.026-14.308-1.363.065-.973.711-1.333,1.284-2.074a24.138,24.138,0,0,1,5.957-5.407c1.378-.923,1.515-1.923,2.687-2.638a3.271,3.271,0,0,0,.65-.414l4.753-3.725.441-2.089,1.261,1.228c1.746-1.982,4.5-2.115,6.238-3.485.67-.528,1.036-1.538,1.762-1.813.7-.266.857-.14.954-.016.125.159.153.319,1.1-.336,1.753-1.213.027-.7,1.911-1,1.923-.309,1.989-2.722,3.668-2.951,2.092.276,1.182,1.777,3.7-.02.908-.648.531-.367,1.485-.255s.84-.041,1.867-.479c3.091-1.318,6.047-.865,9.168-1.5,1.223-2.206.864-2.069.37-4.5a14.527,14.527,0,0,0-1.328-4.553c-.553-.913-.567-.9-.7-.886-.09.008-.233.019-.633-.26-1.82-1.263-.738-1.728-3.4-2.275-2.457-.5-2.188-.8-3.241-.8-.592,0-1.6.093-3.736.294" transform="translate(-3.163 -144.169)" fill="none"/>
    </clipPath>
    <linearGradient id="linear-gradient" x1="-0.337" y1="0.824" x2="-0.327" y2="0.824" gradientUnits="objectBoundingBox">
      <stop offset="0" stop-color="#0094cb"/>
      <stop offset="1" stop-color="#162088"/>
    </linearGradient>
  </defs>
  <g id="Group_74372" data-name="Group 74372">
    <g id="Group_74371" data-name="Group 74371" clip-path="url(#clip-path)">
      <path id="Path_33386" data-name="Path 33386" d="M127.366,206.766c-.031.2-.059.376-.083.515a16.02,16.02,0,0,1-.655,2.865,25.842,25.842,0,0,1-1.956,3.734,86.493,86.493,0,0,1-6.005,9.331l-.088.117-.249.26a2.67,2.67,0,0,1-.62.5l-.061.451-.957,1.178-.8.187a3.911,3.911,0,0,1-.924.1,23.209,23.209,0,0,1-6.568,6.879,20.286,20.286,0,0,1-2.983,1.558c-.756.327-1.537.624-2.276.987-.183.09-.365.185-.542.288l-.405.233-.464.065c-4.712.657-9-.78-11.14-5.239a21.8,21.8,0,0,1-1.925-11.761c-.913,1.219-1.849,2.4-2.773,3.511l-.327.394-.34.169a4.014,4.014,0,0,1-.448.564l-.115.332-.3.35c-1.107,1.272-2.25,2.527-3.445,3.719-1.979,3.493-7.148,6.97-10.236,9.385l-.51.4-.64.089c-5.126.716-8.789-2.382-10.87-6.726a16.606,16.606,0,0,1-1.75-6.621c-.092-1.758,0-3.49-.148-5.257L56.7,218.6l.359-.642a10.325,10.325,0,0,0,1.32-5.192l-.008-.432,4.861-13.85q-.658.19-1.314.386-2.553.763-5.085,1.616c-.248.085-.526.175-.811.269a12.274,12.274,0,0,1,.645,1.263c1.391,3.307,1.648,10.754.339,14.1-1.049,2.678-4.017,7.987-6.209,9.828l-5.072,4.591-.079.061c-1.192.911-2.923,2.369-4.436,2.636a5.24,5.24,0,0,0-.86.176.5.5,0,0,0-.055.022,6.011,6.011,0,0,0-1.137.879,9.934,9.934,0,0,1-2.527,1.732,24.235,24.235,0,0,1-7.7,1.942c-10.633.9-18.692-4.995-17.142-16.4a14.182,14.182,0,0,1,3.766-7.93c.18-.192.358-.369.547-.544.074-.131.148-.267.221-.4a14.621,14.621,0,0,1,3.935-4.1l1.418-1.111c.219-.181.434-.352.663-.517.135-.136.267-.285.4-.424l.036-.038,1.379-1.348.114-.088a10.576,10.576,0,0,1,2.375-1.25,1.885,1.885,0,0,0,.461-.266,5.027,5.027,0,0,1,1.537-.964,8.988,8.988,0,0,0,1.136-.709c.614-.426,1.218-.858,1.845-1.266a23.914,23.914,0,0,1,6.15-2.865c.229-.07.668-.18,1.2-.315-1.661-.374-3.366-.667-4.078-.835a6.239,6.239,0,0,1-1.34-.453c-2.747.465-5.125-.051-7.819.08-1.27.062-2.521.422-3.8.485-1.612.079-3.26.4-4.863.611a19.63,19.63,0,0,1-5.947.08A10.914,10.914,0,0,1,6.275,195.3c-5-3.851-6.082-11.194-4.885-17.033a18.479,18.479,0,0,1,1.252-4.694,25.429,25.429,0,0,1,1.785-2.382,2.188,2.188,0,0,0,.292-.585,10.135,10.135,0,0,1,1.022-2.221c1.307-2.027,4.747-5.774,6.819-6.936.272-.153.575-.3.854-.465.206-.316.411-.613.655-.928l.228-.3,5.24-3.617.142-.072a7.676,7.676,0,0,0,1.89-1.4,9.6,9.6,0,0,1,3.054-1.955,11.627,11.627,0,0,0,2.66-1.318,10.4,10.4,0,0,1,1.917-1.625l.224-.15,8.611-3.293a3.347,3.347,0,0,1,.585-.432c1.251-.727,2.171-.322,3.287-.739a24.351,24.351,0,0,0,2.25-1.054,12.827,12.827,0,0,1,4.7-1.173c1.407-.132,3.953-.516,5.323-.134.307.085.6.206.9.306a13.082,13.082,0,0,0,1.468.372,5.513,5.513,0,0,1,3.369,1.671,5.054,5.054,0,0,0,.738.85c1.064.193,1.624,1.053,2.2,2.014a16.114,16.114,0,0,1,1.626,5.316,13.291,13.291,0,0,1,.506,2.942,7.06,7.06,0,0,1-1.129,3.2l-.537.968-1.085.223a38.637,38.637,0,0,1-4.668.521,12.7,12.7,0,0,0-4.039.84c-1.287.549-1.532.84-3.092.655l-.047-.005c-1.177.817-2.475,1.511-3.947.942a2.608,2.608,0,0,1-.615-.336c-.116.171-.228.343-.307.45a4.913,4.913,0,0,1-3.274,2.161l-.159.025a9.065,9.065,0,0,1-.763.578,3.987,3.987,0,0,1-2.6.9l-.037.05a5.946,5.946,0,0,1-1.062,1.132,14.171,14.171,0,0,1-3.707,1.855,5.772,5.772,0,0,0-2.214,1.331l-1.673,1.9-.574-.559-4.553,3.569a4.263,4.263,0,0,1-.757.5c-.035.019-.068.041-.1.061a1.535,1.535,0,0,0-.386.367,9.269,9.269,0,0,1-2.214,2.215,23.048,23.048,0,0,0-4.529,3.842c.976.087,1.945.124,2.707.152,1.475.054,2.95.069,4.423.124a18.517,18.517,0,0,1,3.722.394,9,9,0,0,1,1.759.751,6.846,6.846,0,0,1,1.1-.254l.766-.122.693.348a5.672,5.672,0,0,1,1.134.727c4.816.289,13.024,3.482,16.538,6.595.409.362.775.751,1.157,1.139.071.072.191.2.3.3l.013,0L60.944,191l.148-.023a24.755,24.755,0,0,0,5.463-1.779c.4-.181.788-.376,1.169-.589a12.7,12.7,0,0,1,4.069-4.681l.876-.511.978.271a7.116,7.116,0,0,1,3.53,2.166c2.149,2.464,2.2,6.068,1.827,9.139a64.486,64.486,0,0,1-2.547,10.662l-.125.408-.257.341c-.22.3-.36.565-.595.853-.023.289.015.771.015,1.018v.06l.01.4-.117.381a72.227,72.227,0,0,0-2.38,8.86,4.423,4.423,0,0,0-.06,1.156,7.013,7.013,0,0,0,2.608-.615q.565-.239,1.1-.532c.07-.038.165-.086.243-.133a4.471,4.471,0,0,1,1.673-1.842c.043-.071.087-.137.132-.205.072-1.308.89-1.716,1.731-2.345l.165-.159a2.345,2.345,0,0,0,.478-.632,10.49,10.49,0,0,1,1.3-1.942c1.131-1.3,2.207-2.658,3.247-4.036l.709-.94.9-.014.111-.685.618-.486c.076-.2.134-.378.232-.579l.152-1.666,1.168-.3-.16-.587.6-.908q1.655-2.51,3.209-5.084c.481-.793.941-1.625,1.434-2.4,1.221-1.931,4.026-3.554,6.211-4.39a12.611,12.611,0,0,1,2.077-1.154c1.24-.563,2.89-1.2,4.228-.652a3.848,3.848,0,0,1,1.334.9c1.328,1.391,1.3,3.383,1.067,5.159-.227,1.7-.641,3.39-.93,5.084a26.073,26.073,0,0,1-1.069,3.823,26.232,26.232,0,0,0-1.153,3.816l.164.54-.216.641a3.73,3.73,0,0,1-.462,1.7l-.02.036a3.423,3.423,0,0,1-.268.944c-.159.54-.3,1.168-.429,1.762l.01.025-.165.726c-.43,1.894-.577,3.5-1.587,5.224-1.048,1.786-.488,2.449-.029,3.53a22.936,22.936,0,0,0,4.345-2.7,7.932,7.932,0,0,1,1.459-.852,3.113,3.113,0,0,0,.512-.281,15.756,15.756,0,0,0,2.6-2.779c1.327-1.689,2.558-3.467,3.719-5.274l1-1.549.238.075a2.853,2.853,0,0,1,.626-.383l.1-.042c.031-.068.061-.136.088-.206V206.7l-.038-1.442,1.06-.6c.012-.062.024-.124.04-.188a10.068,10.068,0,0,1,.679-1.642l-.4-.432.785-1.45a7.975,7.975,0,0,0,.084-1.345,9.606,9.606,0,0,1,.312-2.616,6.973,6.973,0,0,0-.137-.932,6.483,6.483,0,0,1-.043-3.116,2.743,2.743,0,0,0-.053-.276,5.312,5.312,0,0,1-.143-1.18c0-.08,0-.157.009-.236a2.663,2.663,0,0,1-.891-2.114A13.4,13.4,0,0,1,117.947,186c-.188-1.775,1.117-2.676,2.512-3.311l.115-.052a7.952,7.952,0,0,1,2.9-2.478c1.3-.764,3.295-1.962,4.812-1.231l.424.2,1.245,1.375.485,1.742.194,2.762-.009.155a1.585,1.585,0,0,0,.017.315c.043.3.116.61.182.917l.481-2.406a5.384,5.384,0,0,1,1.042-2.915c-.018-.164-.031-.328-.044-.488l-.1-1.328,1.071-.789.013-.008a11.487,11.487,0,0,1,.547-3.486c.03-.087.061-.172.093-.253-.75.138-1.5.283-2.318.36-.267.072-.585.207-.841.3a16.562,16.562,0,0,1-1.778.556c-3.416.821-6.167-.573-6.8-4.244l-.215-1.248.908-.884c2.931-2.855,9.7-3.794,13.664-4.054.12-.007.489-.012.749-.035a4.648,4.648,0,0,1,1.521-2.382,2.34,2.34,0,0,1,.4-.638c.035-.09.07-.186.1-.281a5.948,5.948,0,0,1,.606-2.852c.015-.039.03-.08.043-.119a5.644,5.644,0,0,1,.271-.743,4.664,4.664,0,0,1,.209-.423,2.657,2.657,0,0,1,.18-.272c1.464-3.4,3.943-6.437,6.088-9.41a8,8,0,0,1,1.918-1.735l.927-.651.26.071c.036-.033.07-.066.106-.1a3.082,3.082,0,0,1,.325-.25l.027-.151,1.032-.554a22,22,0,0,1,5.868-2.251l.844-.166.739.4a.111.111,0,0,0,.025.006.831.831,0,0,0,.168.015l1.384-.772,1.185.992.025,0c.363.055.621.178.94.251a2.679,2.679,0,0,1,.843.159c.1.009.206.008.3.008h.344l.331.1c.815.241,1.628.486,2.441.729.423.126.883.278,1.311.377a7.163,7.163,0,0,1,2.147.9c1.716,1.076,3.731,2.652,3.752,4.88a8.377,8.377,0,0,1-.264,1.945,7.67,7.67,0,0,1-.714,1.968,8.123,8.123,0,0,1-1.726,3.1c-.971,1.169-2.335,2.37-3.933,2.416a5.335,5.335,0,0,1-2.85-1.222c-.907-.6-1.8-1.231-2.691-1.854-.744-.52-1.489-1.043-2.243-1.548-.29-.194-.668-.462-1.007-.657a9.629,9.629,0,0,0-2.982.329l-.479.152-.247-.027-.082.173-.407.338a3.333,3.333,0,0,0-.439.446,8.848,8.848,0,0,0-1.145,2.08c-.45,1.044-.856,2.09-1.359,3.11-.327.929-.775,1.852-1.181,2.746-.067.148-.163.356-.27.593.3-.019.606-.058.928-.109a49.466,49.466,0,0,1,5.288-.544q6.687-.358,13.368-.88c2.675-.211,5.354-.443,8.02-.743a41.936,41.936,0,0,0,5.317-.809l.036-.008,1.5-.33.218-.007a3.189,3.189,0,0,1,.461.021l.154,0,1.788.4.523.966a3.707,3.707,0,0,1,.354,2.837c-1.092,3.726-7.443,3.748-10.585,4.4l-.106.022-23.152,2.659-.025,0c-1.744.164-3.473.14-5.21.266a5.326,5.326,0,0,0-1.959.409,1.01,1.01,0,0,0-.107.363l-.935,6.663-.718-1.178a26.3,26.3,0,0,1-.949,2.691c-.137.333-.3.648-.439.967a24.518,24.518,0,0,0-1.056,4.958,34.061,34.061,0,0,1-1.234,6.106,8.614,8.614,0,0,0-.824,3.9,9.225,9.225,0,0,1-.543,4.111,17.318,17.318,0,0,0-.347,2.476c-.164,1.525-.3,3.053-.463,4.579a57.246,57.246,0,0,1-.83,5.947,19.339,19.339,0,0,0-.077,4.158c.065,1.456.174,2.963.114,4.419-.133,3.213-.292,6.432-.558,9.638a18.738,18.738,0,0,0,.121,3.452,21.882,21.882,0,0,1,.089,4.632L137.9,243l-1.85.268a16.852,16.852,0,0,1-1.946.207,5.143,5.143,0,0,1-5.309-3.137,16.758,16.758,0,0,1-.822-4.277c-.193-1.895-.3-3.81-.377-5.712-.125-3-.219-6.128-.135-9.133a3.889,3.889,0,0,0-.012-.624,6.6,6.6,0,0,1-.328-2.337c.041-3.811-.079-7.676.248-11.487m-78.24-3.55c-3.686.5-9.453,3.6-12.344,5.021-1.066.526-2.1.955-3.191,1.407a31.184,31.184,0,0,0-4.848,2.764,9.2,9.2,0,0,1-1.847.9,1.188,1.188,0,0,0-.379.258,20.97,20.97,0,0,1-2,1.634c-.281.4-.565.8-.864,1.194a6.163,6.163,0,0,1-.942,1.018,2.725,2.725,0,0,0-.247.231,15.807,15.807,0,0,0-2.464,3.984,14.516,14.516,0,0,0-1.166,3.8,3.888,3.888,0,0,0,.086,1.791A4.765,4.765,0,0,0,20.25,228.3c3.105,1.394,7.5-.423,10.322-1.823,1.829-.908,3.584-1.987,5.46-2.8a12.517,12.517,0,0,0,3.6-1.879l.819-.874.058-.054a6.466,6.466,0,0,1,1.943-1.228.474.474,0,0,0,.209-.136c.024-.028.053-.061.076-.092a4.718,4.718,0,0,1,1.66-2.046,5.6,5.6,0,0,0,1.336-1.38c.265-.421.488-.893.718-1.333.432-.827.893-1.623,1.4-2.406,1.578-2.438,1.423-2.247,1.812-5.277a15.907,15.907,0,0,0,.21-2.836c-.115-.169-.312-.377-.434-.529q-.16-.2-.311-.4" transform="translate(0.044 6.675)" fill="#e7e8e8" fill-rule="evenodd"/>
      <path id="Path_33387" data-name="Path 33387" d="M126.66,57.8l-13.8-6.6L102.369,39.666l5.841-7.747-10.08.5-4.26-9.168L89.95,32.32l-10.3-.449,5.115,6.652-14.62,2.442L90.811.016,97.121,0Z" transform="translate(3.292 0)" fill="#103c98" fill-rule="evenodd"/>
      <path id="Path_33388" data-name="Path 33388" d="M87.991,38.209l-10.5,11.023L63.359,55.818,57.7,47.938l-2.517,9.774L45.162,59.054l7.491,6.438-3.492,9.7,7.872-2.906L54.927,86.881,22.064,55.066l1.861-6.029Z" transform="translate(1.036 1.793)" fill="#d21113" fill-rule="evenodd"/>
      <path id="Path_33389" data-name="Path 33389" d="M57.6,70.509l7.265,13.534,1.61,15.509-9.3,2.778L65.6,107.9l-2,9.909,8.53-4.979,8.032,6.469-.177-8.39,13.105,6.757-40.8,20.672-5.092-3.727Z" transform="translate(2.215 3.309)" fill="#4f0098" fill-rule="evenodd"/>
      <path id="Path_33390" data-name="Path 33390" d="M78.979,107.974l15.1-2.736,15.258,3.215-.2,9.7,7.879-6.307,8.82,4.94-2.127-9.645,8.616-5.666-8.041-2.4,10.38-10.535,7.252,45.3-5.107,3.706Z" transform="translate(3.707 4.155)" fill="#ffab20" fill-rule="evenodd"/>
      <path id="Path_33391" data-name="Path 33391" d="M120.869,100.662l1.98-15.169,7.7-13.557,9.18,3.143-3.612-9.424,7.388-6.9-9.836-.907-2.778-9.931-4.731,6.93-6.738-13.114,45.217,6.889,1.978,5.993Z" transform="translate(5.605 1.959)" fill="#2c8d3a" fill-rule="evenodd"/>
      <path id="Path_33392" data-name="Path 33392" d="M33.139,184.729c4.726.242,12.967,3.432,16.454,6.52.3.263,1.261,1.314,1.61,1.558.034-.009.068-.023.092-.031l.083-.032,9.679-2.775.129-.021a16.865,16.865,0,0,0,2.084-.525,26.6,26.6,0,0,0,3.462-1.279c.43-.2.857-.41,1.27-.645a12.569,12.569,0,0,1,4-4.64l.759-.442.847.234a6.79,6.79,0,0,1,3.373,2.068c2.08,2.385,2.113,5.917,1.749,8.887a64.175,64.175,0,0,1-2.536,10.607l-.107.355-.224.3c-.235.312-.376.6-.647.914a10.774,10.774,0,0,0,0,1.15c0,.021,0,.042,0,.062l.01.349-.1.333a72.475,72.475,0,0,0-2.389,8.9,3.54,3.54,0,0,0,0,1.472c.558.306,2.473-.361,2.991-.58q.579-.245,1.132-.545a2.845,2.845,0,0,0,.334-.194l.006-.012a4.2,4.2,0,0,1,1.656-1.819c.069-.118.143-.224.216-.334.035-1.249.835-1.615,1.615-2.2l.185-.177a2.681,2.681,0,0,0,.537-.709,10.182,10.182,0,0,1,1.259-1.887c1.135-1.311,2.217-2.671,3.261-4.055l.614-.813,1.013-.016.133-.827.589-.463c.1-.222.153-.444.276-.683l.005-.043.133-1.463,1.266-.327-.207-.762.517-.785q1.658-2.516,3.216-5.094c.478-.79.938-1.622,1.43-2.4,1.187-1.877,3.972-3.471,6.094-4.276a12,12,0,0,1,2.055-1.146c1.143-.519,2.74-1.153,3.973-.648a3.508,3.508,0,0,1,1.222.828c1.249,1.309,1.2,3.226.98,4.894-.226,1.7-.639,3.383-.927,5.071a25.939,25.939,0,0,1-1.056,3.775,25.282,25.282,0,0,0-1.176,3.952l.154.5-.2.582a3.467,3.467,0,0,1-.426,1.607c-.015.027-.032.06-.047.09a3.2,3.2,0,0,1-.261.932c-.173.574-.328,1.264-.461,1.9l.009.024-.143.631a16.355,16.355,0,0,1-1.552,5.131,3.317,3.317,0,0,0-.566,2.516,13.842,13.842,0,0,0,.605,1.584c1.3-.324,3.923-2.221,4.75-2.85a7.629,7.629,0,0,1,1.4-.818,3.439,3.439,0,0,0,.564-.312,15.941,15.941,0,0,0,2.663-2.839c1.335-1.7,2.571-3.484,3.738-5.3l.862-1.341.176.055a2.416,2.416,0,0,1,.684-.451c.068-.03.137-.059.206-.086a3.805,3.805,0,0,0,.166-.394c0-.041,0-.083,0-.125l-.034-1.25,1.028-.584a2.713,2.713,0,0,1,.059-.316,10.89,10.89,0,0,1,.688-1.706c.012-.028.025-.06.041-.093l-.369-.4.693-1.281a7.6,7.6,0,0,0,.1-1.457,9.111,9.111,0,0,1,.312-2.575,6.4,6.4,0,0,0-.142-1.036,6.217,6.217,0,0,1-.048-2.981.417.417,0,0,0-.005-.2,6.812,6.812,0,0,1-.182-1.332c0-.118.009-.237.022-.353l-.1-.087a2.5,2.5,0,0,1-.8-1.966,14.6,14.6,0,0,1-1.373-3.115c-.171-1.608,1.069-2.411,2.325-2.984.063-.029.137-.061.213-.094a7.419,7.419,0,0,1,2.83-2.451,18.663,18.663,0,0,1,1.836-.962,3.1,3.1,0,0,1,2.672-.258l.366.177.015.016-.012-.154.928-.685c.045-.032.093-.067.137-.1l0,0a11.46,11.46,0,0,1,.534-3.545,6.306,6.306,0,0,1,.34-.8c-.239.042-.482.088-.736.14a20.674,20.674,0,0,1-2.193.344c-.267.067-.608.213-.864.306a16.62,16.62,0,0,1-1.771.555c-3.235.777-5.806-.5-6.4-3.986l-.186-1.081.786-.764c2.86-2.786,9.6-3.71,13.46-3.963a9.323,9.323,0,0,0,.954-.062l.005-.011c.516-1.252.762-1.951,1.552-2.449a2.021,2.021,0,0,1,.42-.679c.049-.132.107-.285.152-.428a5.541,5.541,0,0,1,.578-2.764c.11-.287.177-.551.308-.847.06-.134.122-.267.195-.394a2.261,2.261,0,0,1,.18-.268c1.449-3.391,3.936-6.43,6.071-9.387a7.7,7.7,0,0,1,1.84-1.658l.8-.563.293.08c.074-.075.149-.15.224-.216a2.506,2.506,0,0,1,.405-.294l.024-.138.893-.479a21.63,21.63,0,0,1,5.779-2.218l.731-.146.657.353a.375.375,0,0,0,.1.029.923.923,0,0,0,.331.008l1.242-.693,1.081.906c.039.008.083.015.117.02.308.047.723.23.953.253a2.393,2.393,0,0,1,.807.154,2.906,2.906,0,0,0,.366.015h.3l.286.085c.817.241,1.632.487,2.448.73.427.127.892.282,1.324.381a6.838,6.838,0,0,1,2.047.863c1.609,1.009,3.583,2.517,3.6,4.61a8.06,8.06,0,0,1-.255,1.868,7.193,7.193,0,0,1-.708,1.939,7.794,7.794,0,0,1-1.668,3c-.9,1.091-2.2,2.257-3.695,2.3a5.131,5.131,0,0,1-2.662-1.168c-.9-.6-1.793-1.227-2.683-1.849-.755-.528-1.509-1.056-2.273-1.568-.3-.2-.716-.5-1.072-.693a10.046,10.046,0,0,0-3.168.341l-.416.131-.407-.044-.15.315-.353.293a3.6,3.6,0,0,0-.482.489,9.115,9.115,0,0,0-1.192,2.158c-.45,1.044-.855,2.091-1.36,3.111-.325.927-.773,1.848-1.177,2.739-.1.228-.29.629-.473,1.056a7.857,7.857,0,0,0,1.475-.122,49.42,49.42,0,0,1,5.255-.539q6.69-.36,13.377-.882c2.678-.211,5.36-.443,8.03-.744a42.226,42.226,0,0,0,5.359-.817l.031-.007,1.464-.322.188-.006a2.816,2.816,0,0,1,.432.021l.135,0,1.609.356.453.838a3.386,3.386,0,0,1,.329,2.592c-1.027,3.5-7.37,3.56-10.341,4.176l-.092.02-23.134,2.657-.021,0c-1.742.164-3.469.14-5.2.265a4.968,4.968,0,0,0-2.158.5,1.009,1.009,0,0,0-.205.553l-.809,5.771L141,176.79a24.633,24.633,0,0,1-1.131,3.376c-.136.331-.294.642-.437.962a24.63,24.63,0,0,0-1.079,5.037,33.907,33.907,0,0,1-1.218,6.043,8.857,8.857,0,0,0-.843,4.045,8.919,8.919,0,0,1-.531,3.985,16.635,16.635,0,0,0-.354,2.494c-.166,1.539-.307,3.081-.468,4.621a56.979,56.979,0,0,1-.825,5.914,19.472,19.472,0,0,0-.084,4.238c.064,1.447.174,2.946.114,4.392-.133,3.209-.292,6.424-.558,9.624a19.01,19.01,0,0,0,.122,3.511,21.609,21.609,0,0,1,.089,4.566l-.171,1.61-1.6.232a16.917,16.917,0,0,1-1.91.2,4.825,4.825,0,0,1-5-2.938,16.517,16.517,0,0,1-.8-4.187c-.192-1.888-.3-3.8-.376-5.693-.125-3-.219-6.112-.135-9.11a2.505,2.505,0,0,0-.045-.785,6.028,6.028,0,0,1-.294-2.181c.01-.9.01-1.807.01-2.714a79,79,0,0,1-5.02,7.634l-.076.1-.245.255a3.439,3.439,0,0,1-.678.532l-.067.506-.831,1.021-.692.163a3.773,3.773,0,0,1-1.023.092,23.07,23.07,0,0,1-6.572,6.935,20.1,20.1,0,0,1-2.936,1.533c-.761.329-1.546.628-2.29.994-.191.093-.379.192-.562.3l-.351.2-.4.057C97.158,235,93,233.632,90.923,229.3a21.67,21.67,0,0,1-1.728-12.823v0c-1.143,1.575-2.335,3.092-3.509,4.509l-.283.341-.358.177a3.861,3.861,0,0,1-.508.641l-.118.34-.263.3c-1.111,1.276-2.26,2.538-3.461,3.733-1.926,3.441-7.132,6.946-10.176,9.327l-.441.344-.555.077c-4.981.7-8.515-2.332-10.535-6.546a16.289,16.289,0,0,1-1.719-6.5c-.092-1.761,0-3.5-.148-5.267l-.053-.634.312-.557a10.636,10.636,0,0,0,1.36-5.354l-.006-.375,5.047-14.383q-.961.272-1.916.558-2.575.77-5.124,1.63c-.342.116-.743.244-1.151.381a16.288,16.288,0,0,1,.818,1.571c1.358,3.228,1.614,10.591.336,13.854-1.027,2.624-3.976,7.906-6.121,9.7l-5.066,4.585-.068.053c-1.129.863-2.861,2.321-4.3,2.574a5.485,5.485,0,0,0-.9.187.874.874,0,0,0-.087.033,6.119,6.119,0,0,0-1.218.931,9.617,9.617,0,0,1-2.446,1.68,23.884,23.884,0,0,1-7.6,1.915c-10.427.888-18.316-4.839-16.8-16.033a13.86,13.86,0,0,1,3.682-7.754c.186-.2.371-.38.566-.561.084-.146.164-.3.246-.442a14.319,14.319,0,0,1,3.857-4.012l1.418-1.111c.222-.184.44-.355.672-.522.142-.143.284-.3.421-.449l.031-.033,1.36-1.33.1-.075a10.322,10.322,0,0,1,2.313-1.212,2.2,2.2,0,0,0,.541-.318,4.718,4.718,0,0,1,1.463-.916,9.088,9.088,0,0,0,1.18-.734c.611-.424,1.212-.855,1.836-1.261a23.676,23.676,0,0,1,6.07-2.828c.443-.135,1.42-.359,2.419-.635-.289-.08-.533-.142-.691-.18-1.538-.372-3.1-.594-4.632-.956a5.7,5.7,0,0,1-1.363-.476l-.016,0c-2.753.486-5.169-.04-7.87.091-1.272.062-2.523.421-3.8.484-1.623.08-3.278.4-4.89.615a19.363,19.363,0,0,1-5.849.082A10.592,10.592,0,0,1,6.515,193.7c-4.9-3.771-5.937-11-4.766-16.712a18.448,18.448,0,0,1,1.218-4.6,25.338,25.338,0,0,1,1.762-2.348,2.429,2.429,0,0,0,.336-.666,9.833,9.833,0,0,1,.99-2.157c1.276-1.98,4.682-5.694,6.706-6.829.291-.163.626-.33.924-.5.217-.334.425-.643.682-.974l.2-.254,5.181-3.576.124-.063a7.986,7.986,0,0,0,1.961-1.455,9.27,9.27,0,0,1,2.959-1.893,11.267,11.267,0,0,0,2.771-1.395,10.075,10.075,0,0,1,1.861-1.579l.195-.13,8.637-3.3a2.962,2.962,0,0,1,.573-.431c1.157-.673,2.135-.3,3.238-.716a24.853,24.853,0,0,0,2.279-1.067,12.5,12.5,0,0,1,4.591-1.141c1.109-.1,2.238-.227,3.35-.286a5.612,5.612,0,0,1,1.855.14c.3.084.586.2.883.3a13.294,13.294,0,0,0,1.5.381A5.224,5.224,0,0,1,59.715,144a4.561,4.561,0,0,0,.854.949c1.017.154,1.52.983,2.058,1.874a15.932,15.932,0,0,1,1.586,5.215,13.236,13.236,0,0,1,.5,2.869,6.774,6.774,0,0,1-1.089,3.055l-.464.839-.94.193a38.193,38.193,0,0,1-4.628.516,12.994,12.994,0,0,0-4.14.865c-1.23.525-1.438.807-2.928.632-.057-.006-.112-.015-.165-.022-1.108.781-2.354,1.517-3.75.978a3.33,3.33,0,0,1-.811-.475c-.18.243-.386.562-.487.7a4.6,4.6,0,0,1-3.064,2.034c-.083.014-.165.025-.248.038a8.424,8.424,0,0,1-.806.618,3.458,3.458,0,0,1-2.562.811c-.054.075-.106.149-.148.205a5.572,5.572,0,0,1-1,1.072,13.923,13.923,0,0,1-3.628,1.81,6.021,6.021,0,0,0-2.336,1.416l-1.449,1.644-.533-.519-4.772,3.74a3.869,3.869,0,0,1-.711.466l-.119.071a1.815,1.815,0,0,0-.468.44,9.01,9.01,0,0,1-2.144,2.15,22.827,22.827,0,0,0-5,4.368c1.181.136,2.407.182,3.345.217,1.474.054,2.949.069,4.423.124a18.234,18.234,0,0,1,3.654.383,9.641,9.641,0,0,1,1.816.788,6.077,6.077,0,0,1,1.167-.285l.664-.107.6.3a5.088,5.088,0,0,1,1.15.754m16.179,16.8c-3.746.424-9.632,3.593-12.635,5.074-1.059.522-2.087.95-3.171,1.4a31.441,31.441,0,0,0-4.9,2.791,8.86,8.86,0,0,1-1.788.873,1.5,1.5,0,0,0-.475.315,19.878,19.878,0,0,1-2.024,1.644c-.29.417-.581.824-.89,1.234a5.941,5.941,0,0,1-.9.967,2.938,2.938,0,0,0-.276.26,16.108,16.108,0,0,0-2.519,4.067,14.789,14.789,0,0,0-1.191,3.883,3.836,3.836,0,0,0,.142,2.021,5.049,5.049,0,0,0,1.468,1.2c3.217,1.444,7.667-.377,10.6-1.829,1.824-.9,3.574-1.983,5.444-2.789.58-.249,1.175-.464,1.752-.715a9.03,9.03,0,0,0,1.935-1.221l.83-.886.049-.046a6.139,6.139,0,0,1,1.858-1.172.755.755,0,0,0,.317-.217,1.319,1.319,0,0,0,.115-.144,4.428,4.428,0,0,1,1.579-1.953,5.9,5.9,0,0,0,1.409-1.462c.269-.428.5-.907.731-1.356.427-.818.883-1.6,1.384-2.379A14.849,14.849,0,0,0,49.415,209a15.426,15.426,0,0,0,.608-3.326,14.686,14.686,0,0,0,.194-3,4.763,4.763,0,0,0-.42-.523c-.169-.2-.328-.41-.479-.62" transform="translate(0.062 6.622)" fill="#fff" fill-rule="evenodd"/>
      <path id="Path_33393" data-name="Path 33393" d="M126.422,205.283c-.031.2-.06.376-.083.515a15.912,15.912,0,0,1-.656,2.865,25.74,25.74,0,0,1-1.956,3.734,86.485,86.485,0,0,1-6,9.331l-.088.117-.249.26a2.647,2.647,0,0,1-.621.5l-.06.451-.957,1.178-.8.187a3.915,3.915,0,0,1-.925.1,23.184,23.184,0,0,1-6.568,6.879,20.279,20.279,0,0,1-2.982,1.558c-.757.327-1.537.624-2.276.987-.184.09-.365.185-.542.288l-.406.233-.463.065c-4.712.657-9-.78-11.14-5.239a21.8,21.8,0,0,1-1.925-11.761c-.914,1.219-1.849,2.4-2.773,3.511l-.327.394-.34.169a4.017,4.017,0,0,1-.448.564l-.116.332-.3.35c-1.107,1.272-2.251,2.527-3.445,3.719-1.979,3.493-7.148,6.97-10.236,9.385l-.51.4-.641.09c-5.125.715-8.788-2.383-10.869-6.727a16.607,16.607,0,0,1-1.752-6.621c-.092-1.758,0-3.49-.147-5.258l-.061-.733.359-.642a10.314,10.314,0,0,0,1.319-5.192l-.007-.432L62.284,197q-.658.19-1.314.386-2.555.763-5.085,1.616c-.249.085-.526.175-.811.269a12.184,12.184,0,0,1,.645,1.264c1.39,3.306,1.648,10.753.339,14.1-1.049,2.678-4.018,7.987-6.209,9.829l-5.072,4.59-.08.061c-1.191.911-2.922,2.369-4.435,2.636a5.213,5.213,0,0,0-.86.176q-.028.009-.057.022a5.992,5.992,0,0,0-1.136.879,9.935,9.935,0,0,1-2.527,1.732,24.237,24.237,0,0,1-7.7,1.942c-10.633.9-18.692-4.995-17.142-16.4a14.185,14.185,0,0,1,3.766-7.931c.18-.192.358-.369.545-.543.075-.132.148-.268.222-.4a14.617,14.617,0,0,1,3.934-4.1l1.419-1.111c.219-.181.434-.351.663-.516.134-.137.267-.286.4-.425l.036-.038,1.38-1.348.114-.088a10.555,10.555,0,0,1,2.375-1.25,1.9,1.9,0,0,0,.461-.266,5.038,5.038,0,0,1,1.537-.965,8.865,8.865,0,0,0,1.136-.708c.612-.426,1.217-.858,1.844-1.266a23.973,23.973,0,0,1,6.151-2.865c.229-.07.667-.179,1.2-.315-1.661-.374-3.366-.667-4.078-.835a6.268,6.268,0,0,1-1.341-.453c-2.746.465-5.124-.051-7.817.08-1.27.062-2.521.422-3.8.485-1.612.079-3.261.4-4.863.611a19.638,19.638,0,0,1-5.948.08,10.924,10.924,0,0,1-4.832-2.113c-5-3.851-6.081-11.194-4.884-17.033A18.468,18.468,0,0,1,1.7,172.089a25.6,25.6,0,0,1,1.784-2.382,2.16,2.16,0,0,0,.293-.585A10.136,10.136,0,0,1,4.8,166.9c1.307-2.027,4.747-5.774,6.819-6.936.272-.152.574-.3.854-.464.206-.317.411-.615.655-.929l.228-.3,5.24-3.617.141-.072a7.681,7.681,0,0,0,1.891-1.4,9.577,9.577,0,0,1,3.054-1.954,11.673,11.673,0,0,0,2.66-1.319,10.363,10.363,0,0,1,1.917-1.625l.223-.149,8.612-3.294a3.29,3.29,0,0,1,.585-.431c1.251-.728,2.171-.323,3.287-.74a24.338,24.338,0,0,0,2.25-1.054,12.822,12.822,0,0,1,4.7-1.173c1.407-.132,3.953-.516,5.322-.134.308.085.6.206.9.306a12.88,12.88,0,0,0,1.468.373,5.506,5.506,0,0,1,3.369,1.67,4.912,4.912,0,0,0,.738.849c1.064.194,1.624,1.054,2.2,2.015a16.114,16.114,0,0,1,1.626,5.316,13.291,13.291,0,0,1,.506,2.942,7.06,7.06,0,0,1-1.129,3.2l-.537.968-1.085.223a38.657,38.657,0,0,1-4.668.521,12.694,12.694,0,0,0-4.039.84c-1.287.549-1.532.84-3.093.655l-.046-.005c-1.177.818-2.475,1.512-3.947.942a2.585,2.585,0,0,1-.615-.336c-.117.171-.228.343-.307.45a4.918,4.918,0,0,1-3.274,2.162l-.159.024a9.063,9.063,0,0,1-.763.578,4,4,0,0,1-2.6.9c-.013.017-.024.034-.037.049a5.907,5.907,0,0,1-1.061,1.132,14.172,14.172,0,0,1-3.707,1.855,5.764,5.764,0,0,0-2.214,1.331l-1.674,1.9-.574-.559-4.553,3.569a4.2,4.2,0,0,1-.756.5l-.1.061a1.534,1.534,0,0,0-.386.367,9.269,9.269,0,0,1-2.214,2.215,23.086,23.086,0,0,0-4.53,3.842c.977.088,1.946.124,2.708.152,1.474.054,2.949.069,4.423.124a18.593,18.593,0,0,1,3.722.394,9,9,0,0,1,1.759.751,6.958,6.958,0,0,1,1.1-.254l.765-.122.694.348a5.622,5.622,0,0,1,1.133.728c4.816.288,13.025,3.481,16.539,6.594.408.362.775.751,1.157,1.139.071.072.189.2.3.3l.012,0L60,189.516l.149-.024a24.672,24.672,0,0,0,5.462-1.779c.4-.181.788-.376,1.169-.589a12.725,12.725,0,0,1,4.07-4.682l.876-.51.978.271a7.116,7.116,0,0,1,3.53,2.166c2.148,2.464,2.2,6.067,1.827,9.139a64.7,64.7,0,0,1-2.547,10.662l-.125.408-.257.341c-.221.3-.36.565-.595.853-.024.289.015.771.015,1.018,0,.02,0,.04,0,.06l.01.4-.117.381a72,72,0,0,0-2.38,8.861,4.409,4.409,0,0,0-.06,1.155,6.992,6.992,0,0,0,2.608-.615c.376-.158.745-.337,1.1-.532.07-.038.165-.086.242-.133a4.481,4.481,0,0,1,1.674-1.842c.043-.07.087-.137.132-.205.072-1.308.89-1.716,1.73-2.344l.166-.16a2.346,2.346,0,0,0,.478-.632,10.5,10.5,0,0,1,1.3-1.941c1.131-1.306,2.208-2.659,3.248-4.037l.708-.94.9-.014.111-.685.617-.486c.077-.2.134-.378.233-.579l.151-1.666,1.169-.3-.16-.587.6-.908q1.654-2.51,3.209-5.083c.479-.794.94-1.626,1.434-2.406,1.22-1.93,4.027-3.554,6.211-4.39a12.613,12.613,0,0,1,2.077-1.154c1.24-.563,2.89-1.2,4.228-.652a3.845,3.845,0,0,1,1.334.9c1.328,1.39,1.3,3.382,1.066,5.158-.226,1.7-.641,3.39-.929,5.084a26.071,26.071,0,0,1-1.069,3.823,26.364,26.364,0,0,0-1.154,3.816l.165.54-.216.641a3.718,3.718,0,0,1-.463,1.7c-.005.012-.013.023-.019.036a3.459,3.459,0,0,1-.268.944c-.159.54-.3,1.169-.429,1.762l.01.026-.165.726c-.43,1.893-.577,3.5-1.588,5.223-1.047,1.786-.488,2.449-.029,3.53a22.868,22.868,0,0,0,4.346-2.7,8.012,8.012,0,0,1,1.459-.851,3.109,3.109,0,0,0,.512-.281,15.714,15.714,0,0,0,2.6-2.779c1.329-1.689,2.559-3.467,3.72-5.274l.995-1.549.238.075a2.824,2.824,0,0,1,.626-.382l.1-.042c.03-.069.061-.137.088-.207v-.054l-.038-1.443,1.06-.6c.011-.061.024-.124.04-.188a10.067,10.067,0,0,1,.679-1.642l-.4-.432.786-1.45a7.976,7.976,0,0,0,.084-1.345,9.607,9.607,0,0,1,.312-2.616,6.973,6.973,0,0,0-.137-.932,6.5,6.5,0,0,1-.044-3.116,2.423,2.423,0,0,0-.052-.275,5.328,5.328,0,0,1-.144-1.181c0-.079,0-.157.01-.236a2.665,2.665,0,0,1-.891-2.114A13.34,13.34,0,0,1,117,184.516c-.188-1.775,1.117-2.675,2.511-3.311l.116-.051a7.954,7.954,0,0,1,2.9-2.479c1.294-.764,3.295-1.962,4.812-1.231l.424.2,1.245,1.374.485,1.742.194,2.762-.009.155a1.587,1.587,0,0,0,.017.315c.043.3.116.61.182.917l.481-2.406a5.387,5.387,0,0,1,1.042-2.915c-.018-.164-.032-.328-.044-.488l-.1-1.326,1.072-.79.013-.008a11.487,11.487,0,0,1,.547-3.486c.029-.087.061-.172.093-.253-.75.138-1.5.284-2.318.36-.267.072-.586.207-.842.3a16.7,16.7,0,0,1-1.777.555c-3.416.821-6.167-.573-6.8-4.244l-.215-1.248.908-.884c2.931-2.855,9.7-3.794,13.664-4.054.12-.007.489-.012.749-.035a4.648,4.648,0,0,1,1.521-2.382,2.315,2.315,0,0,1,.4-.638c.034-.09.069-.186.1-.281a5.961,5.961,0,0,1,.607-2.852c.015-.039.03-.08.043-.118a5.548,5.548,0,0,1,.271-.744c.064-.143.132-.286.209-.422a2.51,2.51,0,0,1,.18-.273c1.464-3.4,3.943-6.437,6.088-9.41a7.969,7.969,0,0,1,1.918-1.734l.927-.652.26.071c.035-.033.07-.066.106-.1a3.076,3.076,0,0,1,.325-.25l.026-.151,1.033-.553a21.925,21.925,0,0,1,5.867-2.251l.845-.167.739.4a.1.1,0,0,0,.025.006.9.9,0,0,0,.166.016l1.385-.773,1.185.992.025,0c.363.055.621.178.94.251a2.684,2.684,0,0,1,.843.159c.1.009.206.008.3.008h.344l.331.1c.815.24,1.627.485,2.44.728.424.126.884.278,1.312.377a7.163,7.163,0,0,1,2.147.9c1.716,1.076,3.731,2.652,3.752,4.88a8.376,8.376,0,0,1-.264,1.945,7.669,7.669,0,0,1-.714,1.968,8.11,8.11,0,0,1-1.727,3.1c-.969,1.171-2.334,2.37-3.933,2.416a5.331,5.331,0,0,1-2.849-1.222c-.907-.6-1.8-1.231-2.691-1.854-.744-.52-1.489-1.042-2.243-1.548-.29-.194-.668-.462-1.007-.657a9.625,9.625,0,0,0-2.982.329l-.479.152-.247-.027-.083.173-.406.338a3.21,3.21,0,0,0-.439.446,8.817,8.817,0,0,0-1.145,2.081c-.45,1.043-.856,2.089-1.359,3.108-.328.93-.775,1.853-1.181,2.747-.067.148-.164.356-.271.592.3-.018.607-.057.929-.108a49.747,49.747,0,0,1,5.288-.544q6.685-.358,13.368-.88c2.675-.211,5.354-.443,8.02-.743a41.971,41.971,0,0,0,5.317-.808l.036-.009,1.5-.329.217-.008a3.2,3.2,0,0,1,.462.021l.154,0,1.787.4.523.966a3.7,3.7,0,0,1,.355,2.837c-1.093,3.726-7.443,3.749-10.584,4.4l-.107.022L153.1,171.1l-.024,0c-1.744.164-3.473.141-5.21.266a5.348,5.348,0,0,0-1.96.409,1.054,1.054,0,0,0-.107.363l-.934,6.663-.718-1.178a26.21,26.21,0,0,1-.949,2.691c-.137.334-.3.648-.44.967a24.587,24.587,0,0,0-1.055,4.958,34.247,34.247,0,0,1-1.234,6.106,8.631,8.631,0,0,0-.825,3.9,9.2,9.2,0,0,1-.542,4.11,17.172,17.172,0,0,0-.347,2.476c-.164,1.525-.3,3.053-.463,4.578a57.612,57.612,0,0,1-.83,5.949,19.331,19.331,0,0,0-.077,4.157c.065,1.456.174,2.963.114,4.419-.133,3.213-.293,6.432-.558,9.638a18.559,18.559,0,0,0,.121,3.452,21.891,21.891,0,0,1,.088,4.633l-.2,1.858-1.851.269a17.282,17.282,0,0,1-1.945.206,5.143,5.143,0,0,1-5.309-3.137,16.757,16.757,0,0,1-.822-4.277c-.193-1.894-.3-3.81-.377-5.712-.125-3-.219-6.128-.135-9.133a4.016,4.016,0,0,0-.012-.624,6.556,6.556,0,0,1-.328-2.337c.041-3.811-.079-7.676.248-11.487m-78.24-3.55c-3.686.5-9.453,3.6-12.344,5.021-1.066.526-2.1.955-3.191,1.407a31.133,31.133,0,0,0-4.848,2.764,9.2,9.2,0,0,1-1.847.9,1.187,1.187,0,0,0-.379.258,21.139,21.139,0,0,1-2,1.634c-.282.4-.565.8-.864,1.193a6.256,6.256,0,0,1-.942,1.019,2.458,2.458,0,0,0-.247.23,15.777,15.777,0,0,0-2.464,3.984,14.476,14.476,0,0,0-1.166,3.8,3.86,3.86,0,0,0,.086,1.791,4.786,4.786,0,0,0,1.337,1.088c3.105,1.393,7.5-.424,10.322-1.824,1.829-.908,3.583-1.987,5.46-2.8a12.5,12.5,0,0,0,3.6-1.879l.819-.874.058-.053a6.435,6.435,0,0,1,1.943-1.229.465.465,0,0,0,.209-.136c.024-.028.052-.06.076-.092a4.719,4.719,0,0,1,1.66-2.046,5.594,5.594,0,0,0,1.336-1.38c.264-.421.488-.893.718-1.333.432-.827.893-1.623,1.4-2.406,1.578-2.438,1.423-2.247,1.812-5.277a15.811,15.811,0,0,0,.209-2.836c-.114-.169-.311-.377-.434-.529-.107-.131-.209-.264-.31-.4" transform="translate(0 6.605)" fill="#fff" fill-rule="evenodd"/>
    </g>
  </g>
  <g id="Group_74374" data-name="Group 74374" transform="translate(3.311 150.935)">
    <g id="Group_74373" data-name="Group 74373" clip-path="url(#clip-path-2)">
      <rect id="Rectangle_1561" data-name="Rectangle 1561" width="113.043" height="192.799" transform="translate(-9.932 95.659) rotate(-84.726)" fill="url(#linear-gradient)"/>
    </g>
  </g>
  <g id="Group_74376" data-name="Group 74376">
    <g id="Group_74375" data-name="Group 74375" clip-path="url(#clip-path)">
      <path id="Path_33395" data-name="Path 33395" d="M3.221,247.733v-5.386c.447.013.9.024,1.36.047v4.62c.966.076,1.95.185,2.935.325v.771c-1.431-.192-2.863-.321-4.295-.376" transform="translate(0.151 11.374)" fill="#6e6f6e" fill-rule="evenodd"/>
      <path id="Path_33396" data-name="Path 33396" d="M8.264,248.242v-5.407c1.4.242,2.81.512,4.223.788v.752c-.966-.189-1.915-.375-2.863-.555v1.507c.787.149,1.575.3,2.381.463v.751c-.806-.159-1.593-.314-2.381-.464v1.642c1.02.2,2.04.4,3.078.608v.774c-1.486-.3-2.97-.592-4.438-.857" transform="translate(0.388 11.397)" fill="#6e6f6e" fill-rule="evenodd"/>
      <path id="Path_33397" data-name="Path 33397" d="M15.173,249.58v-4.69q-1.181-.215-2.362-.447v-.751c2.022.385,4.044.731,6.066.991v.751c-.787-.088-1.575-.195-2.344-.312v4.689c-.465-.077-.913-.152-1.36-.231" transform="translate(0.601 11.437)" fill="#6e6f6e" fill-rule="evenodd"/>
      <path id="Path_33398" data-name="Path 33398" d="M22.212,244.776c.447-.009.9-.018,1.36-.025v3.3a1.394,1.394,0,0,0,.376,1.167,1.708,1.708,0,0,0,1.9-.1,1.5,1.5,0,0,0,.34-1.124v-3.37c.394-.021.787-.046,1.181-.078v3.286a2.5,2.5,0,0,1-.287,1.358,2.058,2.058,0,0,1-.823.7,3.581,3.581,0,0,1-1.378.3,3.8,3.8,0,0,1-1.4-.144,1.994,1.994,0,0,1-.931-.625,2.118,2.118,0,0,1-.34-1.355v-3.293Z" transform="translate(1.042 11.477)" fill="#6e6f6e" fill-rule="evenodd"/>
      <path id="Path_33399" data-name="Path 33399" d="M28.314,249.777v-.917a5.918,5.918,0,0,0,1.145.206,5.45,5.45,0,0,0,.716-.027,1.556,1.556,0,0,0,.858-.3.686.686,0,0,0,.269-.532.573.573,0,0,0-.143-.391,2.172,2.172,0,0,0-.787-.375c-.159-.053-.3-.1-.448-.151a3.533,3.533,0,0,1-1.27-.672,1.111,1.111,0,0,1-.34-.819,1.386,1.386,0,0,1,.555-1.081,3,3,0,0,1,1.629-.6,9.814,9.814,0,0,1,1.789-.012v.858a5.788,5.788,0,0,0-1.611-.134,1.5,1.5,0,0,0-.752.258.575.575,0,0,0-.268.451.439.439,0,0,0,.161.334,2.571,2.571,0,0,0,.77.36c.16.057.322.106.483.162a3.7,3.7,0,0,1,1.379.7,1.141,1.141,0,0,1,.3.785,1.6,1.6,0,0,1-.626,1.2,3.487,3.487,0,0,1-1.95.677,9.854,9.854,0,0,1-1.861.006" transform="translate(1.329 11.455)" fill="#6e6f6e" fill-rule="evenodd"/>
      <path id="Path_33400" data-name="Path 33400" d="M41.678,247.929q-.886.324-1.289.423c-.268.068-.536.122-.841.17a3.5,3.5,0,0,1-2.7-.384,1.954,1.954,0,0,1-.644-.809,2.945,2.945,0,0,1-.2-1.088,3.625,3.625,0,0,1,.09-.77,2.74,2.74,0,0,1,.287-.719,3.217,3.217,0,0,1,1.127-1.163,5.246,5.246,0,0,1,2.023-.675,11.742,11.742,0,0,1,2.147-.134v.874a9.58,9.58,0,0,0-1.289-.093,6.489,6.489,0,0,0-.752.069,2.447,2.447,0,0,0-1.664.863,2.261,2.261,0,0,0-.394.732,2.987,2.987,0,0,0-.108.816,2.294,2.294,0,0,0,.143.824,1.325,1.325,0,0,0,.447.582,2.159,2.159,0,0,0,1.7.3,3.69,3.69,0,0,0,.555-.141v-1.757l1.36-.216v2.3Z" transform="translate(1.69 11.394)" fill="#6e6f6e" fill-rule="evenodd"/>
      <path id="Path_33401" data-name="Path 33401" d="M42.826,242.521l1.378-.22v3.283c0,.595.122.974.358,1.124a1.374,1.374,0,0,0,.966.137,1.65,1.65,0,0,0,.931-.428,1.579,1.579,0,0,0,.34-1.159V241.9l1.2-.186V245a2.65,2.65,0,0,1-.287,1.378,2.4,2.4,0,0,1-.841.764,3.855,3.855,0,0,1-1.36.44,4.025,4.025,0,0,1-1.413.008,1.652,1.652,0,0,1-.931-.492,1.962,1.962,0,0,1-.34-1.3v-3.275Z" transform="translate(2.01 11.344)" fill="#6e6f6e" fill-rule="evenodd"/>
      <path id="Path_33402" data-name="Path 33402" d="M49.27,246.861V241.5l1.36-.2v5.365l-1.36.194" transform="translate(2.312 11.325)" fill="#6e6f6e" fill-rule="evenodd"/>
      <path id="Path_33403" data-name="Path 33403" d="M52.159,246.484v-5.37c.93-.12,1.878-.23,2.827-.332a3.909,3.909,0,0,1,1.772.118,2.149,2.149,0,0,1,1.02.793,2.37,2.37,0,0,1,.376,1.372,3.535,3.535,0,0,1-.108.771,2.67,2.67,0,0,1-.25.7,2.874,2.874,0,0,1-1.055,1.087,4.485,4.485,0,0,1-1.861.552c-.913.1-1.826.2-2.72.314m1.36-.934c.34-.037.679-.072,1.02-.11a3.19,3.19,0,0,0,1.234-.336,1.732,1.732,0,0,0,.681-.754,2.4,2.4,0,0,0,.232-1.1,1.955,1.955,0,0,0-.232-.99,1.356,1.356,0,0,0-.662-.6,3.235,3.235,0,0,0-1.45-.07l-.823.089v3.874Z" transform="translate(2.448 11.299)" fill="#6e6f6e" fill-rule="evenodd"/>
      <path id="Path_33404" data-name="Path 33404" d="M59.047,245.8v-5.383c1.4-.074,2.81-.139,4.223-.166V241c-.966.018-1.915.043-2.863.094v1.5q1.181-.063,2.362-.085v.745q-1.181.022-2.362.085v1.63c1.02-.053,2.04-.076,3.078-.1v.767c-1.486.027-2.97.09-4.438.166" transform="translate(2.771 11.276)" fill="#6e6f6e" fill-rule="evenodd"/>
      <path id="Path_33405" data-name="Path 33405" d="M68.667,245.8v-2.255c-.376-.546-.768-1.1-1.128-1.642s-.734-1.081-1.091-1.619c.5.023,1,.047,1.52.083.269.4.538.791.806,1.188s.536.8.805,1.2c.268-.353.554-.707.823-1.058s.555-.7.841-1.048l1.074.115c-.394.477-.787.957-1.163,1.437s-.752.964-1.128,1.45v2.262c-.465-.04-.913-.08-1.36-.114" transform="translate(3.119 11.277)" fill="#6e6f6e" fill-rule="evenodd"/>
      <path id="Path_33406" data-name="Path 33406" d="M75.966,246.733a4.672,4.672,0,0,1-1.79-.576,3.1,3.1,0,0,1-1.162-1.142,2.652,2.652,0,0,1-.3-.732,3.839,3.839,0,0,1-.089-.794,3.516,3.516,0,0,1,.089-.769,2.092,2.092,0,0,1,.3-.662,2.131,2.131,0,0,1,1.162-.86,4.059,4.059,0,0,1,1.79-.119,4.651,4.651,0,0,1,1.771.578,3.113,3.113,0,0,1,1.163,1.15,2.655,2.655,0,0,1,.287.733,3.837,3.837,0,0,1,.107.794,3.481,3.481,0,0,1-.107.768,2.046,2.046,0,0,1-.287.662,2.088,2.088,0,0,1-1.163.852,4.034,4.034,0,0,1-1.771.117m0-.737a1.447,1.447,0,0,0,1.413-.451,1.9,1.9,0,0,0,.34-.639,2.532,2.532,0,0,0,.126-.758,2.909,2.909,0,0,0-.126-.79,2.57,2.57,0,0,0-.34-.724,1.9,1.9,0,0,0-1.413-.816,1.439,1.439,0,0,0-1.413.449,1.9,1.9,0,0,0-.358.637,2.555,2.555,0,0,0-.108.76,2.839,2.839,0,0,0,.108.788,2.577,2.577,0,0,0,.358.727,1.891,1.891,0,0,0,1.413.818" transform="translate(3.408 11.312)" fill="#6e6f6e" fill-rule="evenodd"/>
      <path id="Path_33407" data-name="Path 33407" d="M80.123,241.75c.448.052.9.106,1.36.154v3.3a1.62,1.62,0,0,0,.376,1.227,1.594,1.594,0,0,0,.949.389,1.045,1.045,0,0,0,1.271-1.288v-3.383c.394.03.787.058,1.2.087v3.306a2.24,2.24,0,0,1-.287,1.321,1.688,1.688,0,0,1-.823.579,3.292,3.292,0,0,1-1.378.111,4.1,4.1,0,0,1-1.4-.36,2.435,2.435,0,0,1-.931-.749,2.386,2.386,0,0,1-.34-1.4v-3.3Z" transform="translate(3.76 11.346)" fill="#6e6f6e" fill-rule="evenodd"/>
      <path id="Path_33408" data-name="Path 33408" d="M93.783,247.962v-4.644c-.787-.055-1.575-.109-2.344-.15v-.743q3.032.187,6.066.516v.745c-.787-.086-1.575-.17-2.362-.246v4.645l-1.36-.124" transform="translate(4.291 11.378)" fill="#6e6f6e" fill-rule="evenodd"/>
      <path id="Path_33409" data-name="Path 33409" d="M101.057,248.91a4.75,4.75,0,0,1-1.789-.575,3.049,3.049,0,0,1-1.145-1.144,2.636,2.636,0,0,1-.3-.733,3.864,3.864,0,0,1-.089-.795,3.528,3.528,0,0,1,.089-.772,2.08,2.08,0,0,1,.3-.665,2.117,2.117,0,0,1,1.145-.866,4.005,4.005,0,0,1,1.789-.122,4.633,4.633,0,0,1,1.771.577,3.038,3.038,0,0,1,1.163,1.156,2.706,2.706,0,0,1,.287.737,3.876,3.876,0,0,1,.107.8,3.519,3.519,0,0,1-.107.773,2.051,2.051,0,0,1-.287.663,2.1,2.1,0,0,1-1.145.855,4.057,4.057,0,0,1-1.789.113m0-.739a1.436,1.436,0,0,0,1.413-.452,2.014,2.014,0,0,0,.34-.64,2.6,2.6,0,0,0,.126-.762,2.925,2.925,0,0,0-.126-.794,2.7,2.7,0,0,0-.34-.727,1.885,1.885,0,0,0-1.413-.818,1.459,1.459,0,0,0-1.413.455,1.889,1.889,0,0,0-.358.638,2.6,2.6,0,0,0-.108.763,2.84,2.84,0,0,0,.108.789,2.574,2.574,0,0,0,.358.729,1.912,1.912,0,0,0,1.413.818" transform="translate(4.587 11.414)" fill="#6e6f6e" fill-rule="evenodd"/>
      <path id="Path_33410" data-name="Path 33410" d="M109.656,249.806v-2.265c-.376-.556-.771-1.117-1.128-1.677s-.734-1.124-1.091-1.688l1.52.161q.4.6.806,1.208c.268.4.536.808.805,1.21.268-.358.555-.718.823-1.077s.555-.718.841-1.078c.358.022.716.039,1.074.054-.394.5-.786,1.009-1.163,1.508s-.752.989-1.128,1.487v2.271c-.465-.033-.912-.073-1.36-.114" transform="translate(5.042 11.46)" fill="#6e6f6e" fill-rule="evenodd"/>
      <path id="Path_33411" data-name="Path 33411" d="M116.955,250.186a3.948,3.948,0,0,1-1.79-.312,2.564,2.564,0,0,1-1.144-1.02,2.385,2.385,0,0,1-.322-.7,3.733,3.733,0,0,1-.09-.785,3.635,3.635,0,0,1,.09-.78,2.306,2.306,0,0,1,.322-.689,2.472,2.472,0,0,1,1.144-.985,4.7,4.7,0,0,1,1.79-.374,4.638,4.638,0,0,1,1.771.254,2.314,2.314,0,0,1,1.163.9,2.061,2.061,0,0,1,.286.664,3.418,3.418,0,0,1,.108.767,3.738,3.738,0,0,1-.108.79,2.544,2.544,0,0,1-.286.724,2.736,2.736,0,0,1-1.145,1.1,4.091,4.091,0,0,1-1.789.448m0-.736a1.671,1.671,0,0,0,1.413-.709,2.525,2.525,0,0,0,.34-.7,2.829,2.829,0,0,0,.126-.782,2.631,2.631,0,0,0-.126-.764,2.013,2.013,0,0,0-.34-.654,1.614,1.614,0,0,0-1.413-.561,1.71,1.71,0,0,0-1.413.664,2.217,2.217,0,0,0-.358.676,2.683,2.683,0,0,0-.108.774,2.713,2.713,0,0,0,.108.776,2.175,2.175,0,0,0,.358.684,1.575,1.575,0,0,0,1.413.6" transform="translate(5.332 11.477)" fill="#6e6f6e" fill-rule="evenodd"/>
      <path id="Path_33412" data-name="Path 33412" d="M121.112,244.359c.448-.062.9-.126,1.36-.193v3.295q0,.9.376,1.133a1.324,1.324,0,0,0,.966.132,1.639,1.639,0,0,0,.913-.44,1.611,1.611,0,0,0,.34-1.169v-3.382c.394-.077.787-.154,1.2-.232v3.309a2.635,2.635,0,0,1-.287,1.4,2.509,2.509,0,0,1-.823.795,3.858,3.858,0,0,1-1.378.466,3.64,3.64,0,0,1-1.4,0,1.748,1.748,0,0,1-.931-.512,1.931,1.931,0,0,1-.34-1.312v-3.286Z" transform="translate(5.684 11.428)" fill="#6e6f6e" fill-rule="evenodd"/>
      <path id="Path_33413" data-name="Path 33413" d="M127.557,248.624v-5.4c.8-.168,1.628-.343,2.451-.521a3.218,3.218,0,0,1,1.163-.094,1.023,1.023,0,0,1,.608.342.986.986,0,0,1,.232.667,1.715,1.715,0,0,1-.321.968,2.756,2.756,0,0,1-.949.846l1.073,1.043q.539.52,1.074,1.046-.832.17-1.665.348c-.286-.312-.554-.625-.823-.939l-.805-.939-.752.158v2.215l-1.288.262m1.288-3.218.3-.065a2.127,2.127,0,0,0,1.182-.553,1.157,1.157,0,0,0,.322-.757.5.5,0,0,0-.269-.472,1.794,1.794,0,0,0-1.056.028l-.483.1v1.714Z" transform="translate(5.987 11.385)" fill="#6e6f6e" fill-rule="evenodd"/>
      <path id="Path_33414" data-name="Path 33414" d="M135.984,246.874v-.933a6.24,6.24,0,0,0,1.145.125,5.613,5.613,0,0,0,.7-.063,1.65,1.65,0,0,0,.858-.338.736.736,0,0,0,.287-.553.53.53,0,0,0-.161-.388,2.07,2.07,0,0,0-.77-.362c-.159-.049-.3-.089-.448-.132a3.459,3.459,0,0,1-1.288-.592,1.058,1.058,0,0,1-.34-.8,1.6,1.6,0,0,1,.573-1.154,2.942,2.942,0,0,1,1.628-.7,8.278,8.278,0,0,1,1.79-.052v.873a5.165,5.165,0,0,0-1.611-.1,1.466,1.466,0,0,0-.752.288.638.638,0,0,0-.268.475.422.422,0,0,0,.161.331,2.529,2.529,0,0,0,.77.337c.16.052.324.1.483.149a3.345,3.345,0,0,1,1.378.694,1.194,1.194,0,0,1,.3.807A1.625,1.625,0,0,1,139.8,246a3.739,3.739,0,0,1-1.95.75,11.859,11.859,0,0,1-1.861.129" transform="translate(6.381 11.306)" fill="#6e6f6e" fill-rule="evenodd"/>
      <path id="Path_33415" data-name="Path 33415" d="M141.248,240.725c.447-.032.9-.065,1.36-.1v3.328c0,.6.127.99.376,1.168a1.482,1.482,0,0,0,.949.243,1.453,1.453,0,0,0,.931-.311,1.43,1.43,0,0,0,.34-1.121v-3.39l1.2.019v3.3a2.3,2.3,0,0,1-.287,1.333,2.031,2.031,0,0,1-.823.644,3.71,3.71,0,0,1-1.378.266,4.311,4.311,0,0,1-1.4-.132,1.936,1.936,0,0,1-.931-.582,2.044,2.044,0,0,1-.34-1.342v-3.327Z" transform="translate(6.629 11.29)" fill="#6e6f6e" fill-rule="evenodd"/>
      <path id="Path_33416" data-name="Path 33416" d="M152.989,246.152a4.363,4.363,0,0,1-.734.139c-.215.018-.465.027-.733.027s-.537-.014-.806-.032a3.935,3.935,0,0,1-2.559-.952,2.856,2.856,0,0,1-.644-.932,2.893,2.893,0,0,1-.216-1.128,2.766,2.766,0,0,1,.216-1.113,2.478,2.478,0,0,1,.644-.871,3.491,3.491,0,0,1,2.649-.607,10.379,10.379,0,0,1,2.129.408v.87c-.34-.131-.609-.228-.842-.3-.215-.064-.411-.116-.608-.156a5.279,5.279,0,0,0-.573-.086,1.93,1.93,0,0,0-1.646.47,1.635,1.635,0,0,0-.394.638,2.767,2.767,0,0,0-.108.8,2.485,2.485,0,0,0,.126.838,1.978,1.978,0,0,0,.447.683,2.584,2.584,0,0,0,1.718.693,5.086,5.086,0,0,0,1.933-.209Z" transform="translate(6.913 11.295)" fill="#6e6f6e" fill-rule="evenodd"/>
      <path id="Path_33417" data-name="Path 33417" d="M159.195,246.92a4.488,4.488,0,0,1-.752.109c-.215.008-.465.007-.733,0s-.537-.035-.806-.069a4.126,4.126,0,0,1-2.559-1.1,3.165,3.165,0,0,1-.645-.968,3,3,0,0,1-.214-1.137,2.665,2.665,0,0,1,.214-1.1,2.244,2.244,0,0,1,.645-.825,3.467,3.467,0,0,1,2.649-.463,11.487,11.487,0,0,1,2.129.484v.871c-.34-.141-.608-.249-.824-.322s-.429-.133-.626-.181a5.237,5.237,0,0,0-.573-.106,1.877,1.877,0,0,0-1.646.385,1.522,1.522,0,0,0-.394.616,2.671,2.671,0,0,0-.108.787,2.549,2.549,0,0,0,.126.845,2.035,2.035,0,0,0,.447.707,2.727,2.727,0,0,0,1.718.783,5.07,5.07,0,0,0,1.95-.134Z" transform="translate(7.204 11.325)" fill="#6e6f6e" fill-rule="evenodd"/>
      <path id="Path_33418" data-name="Path 33418" d="M160.067,247.257v-5.345c1.4.184,2.81.362,4.223.536v.741c-.966-.117-1.915-.238-2.863-.36v1.488q1.181.152,2.363.3v.742l-2.363-.3v1.62c1.02.134,2.04.267,3.06.392v.764c-1.486-.187-2.952-.379-4.42-.576" transform="translate(7.512 11.354)" fill="#6e6f6e" fill-rule="evenodd"/>
      <path id="Path_33419" data-name="Path 33419" d="M164.939,247.837v-.919a7.588,7.588,0,0,0,1.163.443,5.253,5.253,0,0,0,.7.127,1.32,1.32,0,0,0,.859-.125.568.568,0,0,0,.287-.478.652.652,0,0,0-.161-.422,3.07,3.07,0,0,0-.77-.535l-.448-.247a4.787,4.787,0,0,1-1.288-.937,1.352,1.352,0,0,1-.34-.889,1.128,1.128,0,0,1,.573-.973,2.5,2.5,0,0,1,1.629-.259,10.723,10.723,0,0,1,1.789.348v.862a6.325,6.325,0,0,0-1.629-.46,1.289,1.289,0,0,0-.752.1.45.45,0,0,0-.25.4.581.581,0,0,0,.143.369,3.074,3.074,0,0,0,.77.528c.16.088.324.17.483.259a5.019,5.019,0,0,1,1.4.99,1.329,1.329,0,0,1,.286.85,1.246,1.246,0,0,1-.608,1.081,3.059,3.059,0,0,1-1.968.276,11.271,11.271,0,0,1-1.861-.384" transform="translate(7.741 11.386)" fill="#6e6f6e" fill-rule="evenodd"/>
      <path id="Path_33420" data-name="Path 33420" d="M169.914,248.321V247.4a6.5,6.5,0,0,0,1.145.384,5.475,5.475,0,0,0,.7.084,1.351,1.351,0,0,0,.858-.176.6.6,0,0,0,.287-.5.608.608,0,0,0-.161-.411,2.75,2.75,0,0,0-.77-.492c-.159-.078-.3-.147-.448-.22a4.419,4.419,0,0,1-1.288-.868,1.325,1.325,0,0,1-.34-.876,1.2,1.2,0,0,1,.573-1,2.63,2.63,0,0,1,1.628-.355,11.345,11.345,0,0,1,1.79.225v.864a6.346,6.346,0,0,0-1.611-.342,1.312,1.312,0,0,0-.752.14.493.493,0,0,0-.268.415.518.518,0,0,0,.161.359,3.306,3.306,0,0,0,.769.484c.145.075.3.156.465.231a4.206,4.206,0,0,1,1.4.889,1.328,1.328,0,0,1,.3.837,1.371,1.371,0,0,1-.626,1.122,3.056,3.056,0,0,1-1.95.414,9.773,9.773,0,0,1-1.861-.284" transform="translate(7.974 11.403)" fill="#6e6f6e" fill-rule="evenodd"/>
    </g>
  </g>
</svg>
